HIERARCHY
ROOT Hips
{
	OFFSET 0.000000 0.000000 0.000000
	CHANNELS 6 Xposition Yposition Zposition Xrotation Yrotation Zrotation
	JOINT LeftUpLeg_virtual
	{
		OFFSET 0.000000 0.000000 0.000000
		CHANNELS 3 Xrotation Yrotation Zrotation
		JOINT LeftUpLeg
		{
			OFFSET 10.205400 -3.823500 0.155100
			CHANNELS 3 Xrotation Yrotation Zrotation
			JOINT LeftLeg
			{
				OFFSET 0.708757 -12.982077 0.567790
				CHANNELS 3 Xrotation Yrotation Zrotation
				JOINT LeftFoot
				{
					OFFSET -0.708756 -10.717838 -2.184338
					CHANNELS 3 Xrotation Yrotation Zrotation
					JOINT LeftToeBase
					{
						OFFSET 0.108149 -7.191104 7.560241
						CHANNELS 3 Xrotation Yrotation Zrotation
						JOINT LeftToe_End
						{
							OFFSET 0.070230 0.081724 4.490308
							CHANNELS 3 Xrotation Yrotation Zrotation
							End Site
							{
								OFFSET 0 0 0
							}
						}
					}
				}
			}
		}
	}
	JOINT RightUpLeg_virtual
	{
		OFFSET 0.000000 0.000000 0.000000
		CHANNELS 3 Xrotation Yrotation Zrotation
		JOINT RightUpLeg
		{
			OFFSET -10.205400 -3.823500 0.005500
			CHANNELS 3 Xrotation Yrotation Zrotation
			JOINT RightLeg
			{
				OFFSET -0.708756 -12.982134 0.610632
				CHANNELS 3 Xrotation Yrotation Zrotation
				JOINT RightFoot
				{
					OFFSET 0.708754 -10.717769 -1.945823
					CHANNELS 3 Xrotation Yrotation Zrotation
					JOINT RightToeBase
					{
						OFFSET -0.108140 -7.191069 7.372968
						CHANNELS 3 Xrotation Yrotation Zrotation
						JOINT RightToe_End
						{
							OFFSET -0.070227 0.081735 4.479403
							CHANNELS 3 Xrotation Yrotation Zrotation
							End Site
							{
								OFFSET 0 0 0
							}
						}
					}
				}
			}
		}
	}
	JOINT Spine_virtual
	{
		OFFSET 0.000000 0.000000 0.000000
		CHANNELS 3 Xrotation Yrotation Zrotation
		JOINT Spine
		{
			OFFSET 0.000000 6.876099 0.125700
			CHANNELS 3 Xrotation Yrotation Zrotation
			JOINT Spine1
			{
				OFFSET 0.000000 5.730043 0.104720
				CHANNELS 3 Xrotation Yrotation Zrotation
				JOINT Spine1_split
				{
					OFFSET 0.000000 5.730043 0.104720
					CHANNELS 3 Xrotation Yrotation Zrotation
					JOINT Spine2
					{
						OFFSET 0.000000 5.730043 0.104720
						CHANNELS 3 Xrotation Yrotation Zrotation
						JOINT Neck_virtual
						{
							OFFSET 0.000000 0.000000 0.000000
							CHANNELS 3 Xrotation Yrotation Zrotation
							JOINT Neck
							{
								OFFSET 0.000000 10.314075 0.188496
								CHANNELS 3 Xrotation Yrotation Zrotation
								JOINT Head
								{
									OFFSET 0.000000 7.643700 -2.377400
									CHANNELS 3 Xrotation Yrotation Zrotation
									JOINT HeadTop_End
									{
										OFFSET 0.000000 43.788605 -13.619600
										CHANNELS 3 Xrotation Yrotation Zrotation
										End Site
										{
											OFFSET 0 0 0
										}
									}
								}
							}
						}
						JOINT LeftShoulder_virtual
						{
							OFFSET 0.000000 0.000000 0.000000
							CHANNELS 3 Xrotation Yrotation Zrotation
							JOINT LeftShoulder
							{
								OFFSET 2.196100 4.412489 0.087492
								CHANNELS 3 Xrotation Yrotation Zrotation
								JOINT LeftShoulder_split
								{
									OFFSET 2.196100 4.412489 0.087492
									CHANNELS 3 Xrotation Yrotation Zrotation
									JOINT LeftArm
									{
										OFFSET 8.771219 -2.981674 -0.026999
										CHANNELS 3 Xrotation Yrotation Zrotation
										JOINT LeftForeArm
										{
											OFFSET 8.512804 0.000000 -0.000000
											CHANNELS 3 Xrotation Yrotation Zrotation
											JOINT LeftHand
											{
												OFFSET 18.484802 0.000000 -0.000000
												CHANNELS 3 Xrotation Yrotation Zrotation
												End Site
												{
													OFFSET 0 0 0
												}
											}
										}
									}
								}
							}
						}
						JOINT RightShoulder_virtual
						{
							OFFSET 0.000000 0.000000 0.000000
							CHANNELS 3 Xrotation Yrotation Zrotation
							JOINT RightShoulder
							{
								OFFSET -2.196100 4.412496 0.070690
								CHANNELS 3 Xrotation Yrotation Zrotation
								JOINT RightShoulder_split
								{
									OFFSET -2.196100 4.412496 0.070690
									CHANNELS 3 Xrotation Yrotation Zrotation
									JOINT RightArm
									{
										OFFSET -8.771282 -2.981682 -0.094208
										CHANNELS 3 Xrotation Yrotation Zrotation
										JOINT RightForeArm
										{
											OFFSET -8.494598 0.000000 0.000000
											CHANNELS 3 Xrotation Yrotation Zrotation
											JOINT RightHand
											{
												OFFSET -18.483803 0.000000 0.000001
												CHANNELS 3 Xrotation Yrotation Zrotation
												End Site
												{
													OFFSET 0 0 0
												}
											}
										}
									}
								}
							}
						}
					}
				}
			}
		}
	}
}
MOTION
Frames: 6
Frame Time: 0.03333333
-0.314239 25.742115 1.556377 0.000000 0.000000 0.000000 25.118705 -13.427619 -2.467320 -95.714870 -7.002330 5.284509 59.476707 8.293752 -10.465234 29.569689 31.686607 2.071294 -7.180113 1.608641 2.186275 0.000000 0.000000 0.000000 24.304946 -10.020879 -4.374320 8.902842 -11.710599 2.210067 62.276401 5.076778 6.917073 -13.985110 -11.366259 34.368463 -59.091259 3.141195 6.916821 0.000000 0.000000 0.000000 18.616895 -11.352644 -5.953887 9.703464 13.429008 -9.066144 1.877723 4.015190 -0.564284 0.510107 1.967828 0.307677 0.000000 0.000000 0.000000 2.590061 4.334934 -0.700782 -0.230812 -4.138814 3.759691 -3.503724 -8.682599 12.062161 0.000000 0.000000 0.000000 3.239642 4.120368 -0.711406 1.553893 1.973936 -15.919499 -1.631805 -0.178468 -2.265843 -5.786863 24.654302 -35.869042 1.320861 -20.856186 -0.629599 0.000000 0.000000 0.000000 3.151051 4.027128 -0.649220 3.798024 12.117152 -6.528147 0.512829 0.586998 1.994220 -49.192686 64.750890 16.042603 -170.695129 77.042335 168.430949 0.000000 0.000000 0.000000 
-0.572236 25.684086 2.614298 0.000000 0.000000 0.000000 25.822814 -13.634945 -2.499926 -95.943503 -6.907643 5.881503 59.631021 7.729746 -10.489846 27.874668 31.447028 2.394392 -7.155558 1.576215 2.293084 0.000000 0.000000 0.000000 25.362640 -9.746653 -4.556868 8.517006 -11.866329 0.433278 60.534778 5.665155 7.470664 -11.879727 -10.726644 34.002188 -59.690451 2.263077 7.717285 0.000000 0.000000 0.000000 20.100381 -11.263895 -5.781515 10.178868 13.114405 -9.475048 2.085890 3.846638 -0.554059 0.712123 1.614364 0.122506 0.000000 0.000000 0.000000 2.748539 4.252629 -0.764128 -0.292275 -3.644009 3.592154 -3.500580 -9.054822 11.958790 0.000000 0.000000 0.000000 3.428947 3.935897 -0.716938 1.521835 1.073435 -16.247408 -2.182483 -0.927124 -2.557551 -7.738755 23.425763 -35.645166 1.478298 -22.496724 -0.605879 0.000000 0.000000 0.000000 3.179226 3.871697 -0.580169 3.832835 12.414284 -6.347488 0.552272 0.340088 2.026315 -46.247211 63.803877 12.995167 -169.011638 77.593353 166.993030 0.000000 0.000000 0.000000 
-1.048533 25.620304 3.873953 0.000000 0.000000 0.000000 27.163534 -13.694119 -2.382732 -96.845293 -6.964670 6.615496 61.205100 6.481239 -10.171986 24.066300 30.862534 3.103366 -7.641605 1.499231 2.519774 0.000000 0.000000 0.000000 27.389195 -9.009565 -4.596788 6.147989 -11.747903 -2.536367 58.197023 5.706227 8.109002 -8.272249 -10.322906 31.511904 -59.575075 0.434172 10.236971 0.000000 0.000000 0.000000 22.598854 -11.403464 -5.361897 11.267789 12.277680 -10.215630 2.140488 3.630699 -0.704763 1.129347 1.402066 -0.169935 0.000000 0.000000 0.000000 2.794398 4.116720 -0.993342 -0.703278 -3.078803 3.382827 -3.957199 -9.751643 11.964680 0.000000 0.000000 0.000000 3.344217 3.697966 -0.877104 1.385069 -0.173932 -17.174051 -2.945236 -1.021849 -3.068042 -10.385926 21.669433 -34.420274 1.865419 -26.019068 -0.319403 0.000000 0.000000 0.000000 3.024889 3.625027 -0.703928 3.825998 12.908529 -5.770382 0.291400 0.411932 1.986540 -40.126152 61.263156 7.253330 -168.803836 76.733801 166.910781 0.000000 0.000000 0.000000 
-1.628167 25.535404 5.134703 0.000000 0.000000 0.000000 29.015685 -13.459140 -2.128438 -98.278308 -7.016119 7.306298 63.792539 4.742306 -9.580016 18.954724 29.819059 3.908311 -8.549244 1.350984 2.974621 0.000000 0.000000 0.000000 29.934380 -8.118619 -4.430078 1.393807 -11.405840 -6.576895 55.971235 5.396218 8.724845 -3.510807 -10.469107 27.628513 -59.282156 -1.848041 13.448847 0.000000 0.000000 0.000000 25.735830 -11.560567 -4.763115 12.722129 11.051865 -11.141438 2.018755 3.368037 -0.945674 1.438060 1.179586 -0.238418 0.000000 0.000000 0.000000 2.735927 3.917370 -1.299795 -1.385337 -2.525225 3.116636 -4.852971 -10.689458 12.028232 0.000000 0.000000 0.000000 3.071385 3.428350 -1.139323 1.166747 -1.496463 -18.600494 -3.734648 -0.497255 -3.608749 -12.770235 19.719986 -32.638400 2.378519 -30.696134 0.171279 0.000000 0.000000 0.000000 2.716634 3.307490 -0.959875 3.829984 13.505312 -4.953787 -0.092625 0.795456 1.891030 -33.433742 57.573475 1.515819 -170.001428 74.464348 168.147496 0.000000 0.000000 0.000000 
-2.207611 25.461494 6.356214 0.000000 0.000000 0.000000 31.154139 -12.907405 -1.873773 -100.013114 -6.826220 8.001363 66.698990 2.786935 -8.825895 13.609601 28.512553 4.448600 -9.400178 1.141708 3.565870 0.000000 0.000000 0.000000 32.515406 -7.444241 -4.064614 -6.246299 -10.847940 -11.735897 54.590587 5.474444 9.112044 2.287124 -10.658474 24.416302 -59.934049 -3.893960 15.906124 0.000000 0.000000 0.000000 29.028178 -11.508703 -4.160735 14.335872 9.588126 -12.093583 1.782280 3.102266 -1.216456 1.600486 0.945545 -0.077039 0.000000 0.000000 0.000000 2.583843 3.661602 -1.586315 -2.185581 -2.078863 2.830414 -6.031982 -11.648272 12.040152 0.000000 0.000000 0.000000 2.716381 3.156921 -1.412297 0.895369 -2.738835 -20.361661 -4.313746 0.100550 -3.951236 -14.297986 17.691115 -30.653158 2.836641 -36.018043 0.742489 0.000000 0.000000 0.000000 2.345397 2.963866 -1.246456 3.852127 14.136076 -4.102001 -0.384565 1.348599 1.768524 -27.604852 53.504505 -2.863117 -171.714316 71.215241 169.830509 0.000000 0.000000 0.000000 
-2.787843 25.451624 7.567981 0.000000 0.000000 0.000000 33.507378 -12.074590 -1.763201 -101.703170 -6.177716 8.896318 69.076087 0.960019 -8.072340 8.458561 27.309393 4.657614 -9.613904 0.929247 4.164380 0.000000 0.000000 0.000000 34.836270 -7.356220 -3.574671 -16.046153 -10.127400 -17.715595 54.653494 6.406797 9.304617 8.625105 -10.412262 22.861543 -61.237973 -5.148716 16.691082 0.000000 0.000000 0.000000 32.193434 -11.140395 -3.809557 15.837511 8.103072 -12.911749 1.543683 2.867167 -1.470948 1.424407 0.770054 0.110498 0.000000 0.000000 0.000000 2.397759 3.363318 -1.811006 -2.974512 -1.760841 2.590369 -7.241064 -12.504073 11.936259 0.000000 0.000000 0.000000 2.375574 2.903239 -1.648864 0.596790 -3.868856 -22.115842 -4.460630 0.670010 -3.995846 -14.808265 15.756767 -28.850825 3.025104 -41.218354 1.219351 0.000000 0.000000 0.000000 1.997170 2.641347 -1.496319 3.899320 14.809570 -3.284609 -0.661907 1.920825 1.756298 -23.141144 49.765335 -5.587370 -173.274086 67.902107 171.339352 0.000000 0.000000 0.000000 
